<svg xmlns="http://www.w3.org/2000/svg" fill="none" viewBox="0 0 24 24" id="Google-Play-Console-Icon--Streamline-Svg-Logos" height="24" width="24">
  <desc>
    Google Play Console Icon Streamline Icon: https://streamlinehq.com
  </desc>
  <path fill="#2f80ed" d="M1.351685 21.145075V2.85595c0 -2.0033175 2.193515 -3.255395 3.949365 -2.253l16.030975 9.1442c1.755125 1.00165 1.755125 3.50435 0 4.505275L5.30105 23.39735c-1.7551 1.00165 -3.949365 -0.249675 -3.949365 -2.252275Z" stroke-width="0.25"></path>
  <path fill="#ccf6ff" d="M17.4025 7.5059 8.979425 12.3563 7.3712 9.507c-0.180325 -0.320225 -0.481225 -0.555025 -0.8357 -0.6521 -0.3549 -0.0996 -0.7348 -0.054725 -1.056725 0.12485L1.351685 11.270925v2.80965L5.7402 11.64325l1.615575 2.863975c0.18065 0.31945 0.489075 0.558125 0.845975 0.65505 0.359625 0.0967 0.7429 0.047325 1.066275 -0.137325l10.60705 -6.1091 -2.472575 -1.40995Z" stroke-width="0.25"></path>
</svg>